<svg width="800" height="300" viewBox="0 0 800 300" xmlns="http://www.w3.org/2000/svg">
  <defs>
    <linearGradient id="brandGradient" x1="0" y1="0" x2="1" y2="0">
      <stop offset="0%" stop-color="#0EA5E9"/>
      <stop offset="100%" stop-color="#0284C7"/>
    </linearGradient>
  </defs>
  <rect x="0" y="0" width="800" height="300" fill="#F0F9FF"/>
  <g transform="translate(260,200)">
    <rect x="-180" y="-40" width="40" height="80" rx="8" fill="url(#brandGradient)"/>
    <rect x="-120" y="-80" width="40" height="120" rx="8" fill="url(#brandGradient)" opacity="0.85"/>
    <rect x="-60" y="-100" width="40" height="140" rx="8" fill="url(#brandGradient)" opacity="0.7"/>
    <rect x="0" y="-60" width="40" height="100" rx="8" fill="url(#brandGradient)" opacity="0.6"/>
    <rect x="60" y="-140" width="40" height="180" rx="8" fill="url(#brandGradient)"/>
    <rect x="120" y="-110" width="40" height="150" rx="8" fill="url(#brandGradient)" opacity="0.8"/>
  </g>
  <polyline points="120,220 240,180 360,200 480,140 600,160 700,120" fill="none" stroke="url(#brandGradient)" stroke-width="6" stroke-linecap="round" stroke-linejoin="round"/>
  <circle cx="120" cy="220" r="6" fill="url(#brandGradient)"/>
  <circle cx="700" cy="120" r="6" fill="url(#brandGradient)"/>
</svg>
